<svg xmlns="http://www.w3.org/2000/svg" viewBox="0 0 64 64" role="img" aria-label="Divulgaí IA">
  <defs>
    <linearGradient id="g" x1="8" y1="8" x2="56" y2="56" gradientUnits="userSpaceOnUse">
      <stop stop-color="#5B6CFF"/>
      <stop offset="1" stop-color="#8B5CF6"/>
    </linearGradient>
  </defs>
  <rect width="64" height="64" rx="18" fill="url(#g)"/>
  <path fill="#fff" d="M32 13.5c.8 0 1.4.5 1.6 1.3l1.1 4.7a8 8 0 0 0 5.9 5.9l4.7 1.1c1.7.4 1.7 2.8 0 3.2l-4.7 1.1a8 8 0 0 0-5.9 5.9l-1.1 4.7c-.4 1.7-2.8 1.7-3.2 0l-1.1-4.7a8 8 0 0 0-5.9-5.9l-4.7-1.1c-1.7-.4-1.7-2.8 0-3.2l4.7-1.1a8 8 0 0 0 5.9-5.9l1.1-4.7c.2-.8.8-1.3 1.6-1.3Z"/>
  <circle cx="45" cy="43" r="4" fill="#22D3EE"/>
</svg>
